<svg width="390" height="307" viewBox="0 0 390 307" fill="none" xmlns="http://www.w3.org/2000/svg">
<g clip-path="url(#clip0_535_2898)">
<rect x="-31.9642" y="41.501" width="66.1716" height="66.1716" transform="rotate(15 -31.9642 41.501)" stroke="#F0F0F0"/>
<rect x="-49.0907" y="105.418" width="66.1716" height="66.1716" transform="rotate(15 -49.0907 105.418)" stroke="#F0F0F0"/>
<rect x="31.9525" y="58.6265" width="66.1716" height="66.1716" transform="rotate(15 31.9525 58.6265)" stroke="#F0F0F0"/>
<rect x="-14.8378" y="-22.4165" width="66.1716" height="66.1716" transform="rotate(15 -14.8378 -22.4165)" stroke="#F0F0F0"/>
<rect x="95.8694" y="75.7534" width="66.1716" height="66.1716" transform="rotate(15 95.8694 75.7534)" stroke="#F0F0F0"/>
<rect x="159.786" y="92.8804" width="66.1716" height="66.1716" transform="rotate(15 159.786 92.8804)" stroke="#F0F0F0"/>
<rect x="66.2056" y="-69.2061" width="66.1716" height="66.1716" transform="rotate(15 66.2056 -69.2061)" stroke="#F0F0F0"/>
<rect x="14.8262" y="122.544" width="66.1716" height="66.1716" transform="rotate(15 14.8262 122.544)" stroke="#F0F0F0"/>
<rect x="223.703" y="110.007" width="66.1716" height="66.1716" transform="rotate(15 223.703 110.007)" stroke="#F0F0F0"/>
<rect x="49.0791" y="-5.28955" width="66.1716" height="66.1716" transform="rotate(15 49.0791 -5.28955)" stroke="#F0F0F0"/>
<rect x="-2.30029" y="186.46" width="66.1716" height="66.1716" transform="rotate(15 -2.30029 186.46)" stroke="#F0F0F0"/>
<rect x="339" y="-64.6172" width="66.1716" height="66.1716" transform="rotate(15 339 -64.6172)" stroke="#F0F0F0"/>
<rect x="287.62" y="127.133" width="66.1716" height="66.1716" transform="rotate(15 287.62 127.133)" stroke="#F0F0F0"/>
<rect x="402.917" y="-47.4912" width="66.1716" height="66.1716" transform="rotate(15 402.917 -47.4912)" stroke="#F0F0F0"/>
<rect x="351.537" y="144.26" width="66.1716" height="66.1716" transform="rotate(15 351.537 144.26)" stroke="#F0F0F0"/>
<rect x="130.122" y="-52.0806" width="66.1716" height="66.1716" transform="rotate(15 130.122 -52.0806)" stroke="#F0F0F0"/>
<rect x="78.7429" y="139.67" width="66.1716" height="66.1716" transform="rotate(15 78.7429 139.67)" stroke="#F0F0F0"/>
<rect x="112.996" y="11.8369" width="66.1716" height="66.1716" transform="rotate(15 112.996 11.8369)" stroke="#F0F0F0"/>
<rect x="61.6165" y="203.587" width="66.1716" height="66.1716" transform="rotate(15 61.6165 203.587)" stroke="#F0F0F0"/>
<rect x="194.039" y="-34.9536" width="66.1716" height="66.1716" transform="rotate(15 194.039 -34.9536)" stroke="#F0F0F0"/>
<rect x="142.66" y="156.797" width="66.1716" height="66.1716" transform="rotate(15 142.66 156.797)" stroke="#F0F0F0"/>
<rect x="176.913" y="28.9634" width="66.1716" height="66.1716" transform="rotate(15 176.913 28.9634)" stroke="#F0F0F0"/>
<rect x="125.533" y="220.714" width="66.1716" height="66.1716" transform="rotate(15 125.533 220.714)" stroke="#F0F0F0"/>
<rect x="257.956" y="-17.8271" width="66.1716" height="66.1716" transform="rotate(15 257.956 -17.8271)" stroke="#F0F0F0"/>
<rect x="206.577" y="173.924" width="66.1716" height="66.1716" transform="rotate(15 206.577 173.924)" stroke="#F0F0F0"/>
<rect x="240.829" y="46.0898" width="66.1716" height="66.1716" transform="rotate(15 240.829 46.0898)" stroke="#F0F0F0"/>
<rect x="189.45" y="237.84" width="66.1716" height="66.1716" transform="rotate(15 189.45 237.84)" stroke="#F0F0F0"/>
<rect x="321.873" y="-0.700684" width="66.1716" height="66.1716" transform="rotate(15 321.873 -0.700684)" stroke="#F0F0F0"/>
<rect x="270.494" y="191.05" width="66.1716" height="66.1716" transform="rotate(15 270.494 191.05)" stroke="#F0F0F0"/>
<rect x="385.79" y="16.4258" width="66.1716" height="66.1716" transform="rotate(15 385.79 16.4258)" stroke="#F0F0F0"/>
<rect x="334.411" y="208.176" width="66.1716" height="66.1716" transform="rotate(15 334.411 208.176)" stroke="#F0F0F0"/>
<rect x="304.747" y="63.2163" width="66.1716" height="66.1716" transform="rotate(15 304.747 63.2163)" stroke="#F0F0F0"/>
<rect x="253.367" y="254.967" width="66.1716" height="66.1716" transform="rotate(15 253.367 254.967)" stroke="#F0F0F0"/>
<rect x="368.663" y="80.3423" width="66.1716" height="66.1716" transform="rotate(15 368.663 80.3423)" stroke="#F0F0F0"/>
<rect x="317.284" y="272.093" width="66.1716" height="66.1716" transform="rotate(15 317.284 272.093)" stroke="#F0F0F0"/>
<g filter="url(#filter0_f_535_2898)">
<rect x="80" y="-50" width="390" height="54" fill="#BA64E3"/>
</g>
<rect y="96" width="390" height="211" fill="url(#paint0_linear_535_2898)"/>
</g>
<defs>
<filter id="filter0_f_535_2898" x="-120" y="-250" width="790" height="454" filterUnits="userSpaceOnUse" color-interpolation-filters="sRGB">
<feFlood flood-opacity="0" result="BackgroundImageFix"/>
<feBlend mode="normal" in="SourceGraphic" in2="BackgroundImageFix" result="shape"/>
<feGaussianBlur stdDeviation="100" result="effect1_foregroundBlur_535_2898"/>
</filter>
<linearGradient id="paint0_linear_535_2898" x1="195" y1="96" x2="195" y2="307" gradientUnits="userSpaceOnUse">
<stop stop-color="white" stop-opacity="0"/>
<stop offset="0.776042" stop-color="white"/>
</linearGradient>
<clipPath id="clip0_535_2898">
<rect width="390" height="307" fill="white"/>
</clipPath>
</defs>
</svg>
